<svg width="948" height="948" viewBox="0 0 948 948" fill="none" xmlns="http://www.w3.org/2000/svg">
<rect y="473.762" width="670" height="669.46" transform="rotate(-45 0 473.762)" fill="black"/>
<path d="M160.764 431H405.909C420.117 408.752 445.027 394 473.382 394C501.737 394 526.647 408.752 540.855 431H786.764L473.764 118L160.764 431Z" fill="#00D85A"/>
<path d="M787.527 517H540.855C526.647 539.248 501.737 554 473.382 554C445.027 554 420.117 539.248 405.909 517H160L473.764 830.764L787.527 517Z" fill="#F14343"/>
<path d="M159.445 497V450.8H170.401V467.927H188.617V450.8H199.573V497H188.617V477.926H170.401V497H159.445ZM207.06 497V450.8H218.016V497H207.06ZM248.643 497.99C245.079 497.99 241.724 497.44 238.578 496.34C235.432 495.24 232.66 493.656 230.262 491.588C227.886 489.498 226.016 486.968 224.652 483.998C223.288 481.028 222.606 477.673 222.606 473.933C222.606 470.215 223.255 466.882 224.553 463.934C225.873 460.964 227.699 458.423 230.031 456.311C232.363 454.199 235.069 452.593 238.149 451.493C241.229 450.371 244.54 449.81 248.082 449.81C249.71 449.81 251.415 449.942 253.197 450.206C254.979 450.448 256.794 450.888 258.642 451.526C260.49 452.164 262.305 453.066 264.087 454.232L259.533 462.713C257.949 461.679 256.266 460.92 254.484 460.436C252.702 459.93 250.81 459.677 248.808 459.677C246.498 459.677 244.419 460.007 242.571 460.667C240.723 461.327 239.15 462.284 237.852 463.538C236.576 464.77 235.597 466.266 234.915 468.026C234.233 469.786 233.892 471.777 233.892 473.999C233.892 477.189 234.574 479.862 235.938 482.018C237.302 484.152 239.15 485.769 241.482 486.869C243.814 487.947 246.421 488.486 249.303 488.486C250.447 488.486 251.536 488.387 252.57 488.189C253.604 487.991 254.517 487.76 255.309 487.496V479.312H245.871V470.6H264.912V494.162C263.526 494.954 261.876 495.636 259.962 496.208C258.07 496.78 256.123 497.22 254.121 497.528C252.141 497.836 250.315 497.99 248.643 497.99ZM271.739 497V450.8H282.695V467.927H300.911V450.8H311.867V497H300.911V477.926H282.695V497H271.739ZM319.354 497V450.8H351.826V460.304H330.31V468.884H348.361V477.662H330.31V487.397H352.09V497H319.354ZM357.816 497V450.8H376.56C379.992 450.8 382.984 451.361 385.536 452.483C388.11 453.583 390.09 455.189 391.476 457.301C392.884 459.413 393.588 461.943 393.588 464.891C393.588 467.157 393.159 469.159 392.301 470.897C391.443 472.613 390.266 474.043 388.77 475.187C387.274 476.331 385.58 477.189 383.688 477.761L396.129 497H383.127L372.831 480.005H368.772V497H357.816ZM368.772 471.227H375.24C377.528 471.227 379.31 470.776 380.586 469.874C381.884 468.972 382.533 467.542 382.533 465.584C382.533 463.604 381.917 462.152 380.685 461.228C379.475 460.282 377.737 459.809 375.471 459.809H368.772V471.227Z" fill="white"/>
<path d="M552.937 497V450.8H563.893V487.001H582.439V497H552.937ZM609.055 497.99C605.513 497.99 602.235 497.385 599.221 496.175C596.229 494.943 593.622 493.238 591.4 491.06C589.178 488.882 587.451 486.33 586.219 483.404C585.009 480.478 584.404 477.31 584.404 473.9C584.404 470.468 585.009 467.289 586.219 464.363C587.451 461.437 589.178 458.885 591.4 456.707C593.622 454.529 596.229 452.835 599.221 451.625C602.235 450.415 605.513 449.81 609.055 449.81C612.619 449.81 615.897 450.426 618.889 451.658C621.881 452.89 624.488 454.606 626.71 456.806C628.932 459.006 630.648 461.569 631.858 464.495C633.09 467.399 633.706 470.534 633.706 473.9C633.706 477.31 633.09 480.478 631.858 483.404C630.648 486.33 628.932 488.882 626.71 491.06C624.488 493.238 621.881 494.943 618.889 496.175C615.897 497.385 612.619 497.99 609.055 497.99ZM609.055 487.694C610.969 487.694 612.718 487.375 614.302 486.737C615.908 486.099 617.305 485.175 618.493 483.965C619.681 482.755 620.594 481.303 621.232 479.609C621.892 477.893 622.222 475.99 622.222 473.9C622.222 471.084 621.65 468.642 620.506 466.574C619.384 464.506 617.822 462.911 615.82 461.789C613.84 460.645 611.585 460.073 609.055 460.073C607.163 460.073 605.414 460.403 603.808 461.063C602.202 461.701 600.805 462.625 599.617 463.835C598.451 465.045 597.538 466.497 596.878 468.191C596.218 469.885 595.888 471.788 595.888 473.9C595.888 476.694 596.46 479.125 597.604 481.193C598.748 483.261 600.31 484.867 602.29 486.011C604.292 487.133 606.547 487.694 609.055 487.694ZM649.648 497L635.623 450.8H646.942L654.928 480.665L663.541 450.8H674.497L683.11 480.632L691.096 450.8H702.151L688.126 497H677.335L668.854 467.003L660.34 497H649.648ZM707.9 497V450.8H740.372V460.304H718.856V468.884H736.907V477.662H718.856V487.397H740.636V497H707.9ZM749.134 497V450.8H767.878C771.31 450.8 774.302 451.361 776.854 452.483C779.428 453.583 781.408 455.189 782.794 457.301C784.202 459.413 784.906 461.943 784.906 464.891C784.906 467.157 784.477 469.159 783.619 470.897C782.761 472.613 781.584 474.043 780.088 475.187C778.592 476.331 776.898 477.189 775.006 477.761L787.447 497H774.445L764.149 480.005H760.09V497H749.134ZM760.09 471.227H766.558C768.846 471.227 770.628 470.776 771.904 469.874C773.202 468.972 773.851 467.542 773.851 465.584C773.851 463.604 773.235 462.152 772.003 461.228C770.793 460.282 769.055 459.809 766.789 459.809H760.09V471.227Z" fill="white"/>
<circle cx="474" cy="474" r="39" fill="white"/>
<path d="M460.432 490.66C458.071 490.66 455.886 490.257 453.876 489.45C451.882 488.629 450.144 487.492 448.662 486.04C447.181 484.588 446.03 482.887 445.208 480.936C444.402 478.985 443.998 476.873 443.998 474.6C443.998 472.312 444.402 470.193 445.208 468.242C446.03 466.291 447.181 464.59 448.662 463.138C450.144 461.686 451.882 460.557 453.876 459.75C455.886 458.943 458.071 458.54 460.432 458.54C462.808 458.54 464.994 458.951 466.988 459.772C468.983 460.593 470.721 461.737 472.202 463.204C473.684 464.671 474.828 466.379 475.634 468.33C476.456 470.266 476.866 472.356 476.866 474.6C476.866 476.873 476.456 478.985 475.634 480.936C474.828 482.887 473.684 484.588 472.202 486.04C470.721 487.492 468.983 488.629 466.988 489.45C464.994 490.257 462.808 490.66 460.432 490.66ZM460.432 483.796C461.708 483.796 462.874 483.583 463.93 483.158C465.001 482.733 465.932 482.117 466.724 481.31C467.516 480.503 468.125 479.535 468.55 478.406C468.99 477.262 469.21 475.993 469.21 474.6C469.21 472.723 468.829 471.095 468.066 469.716C467.318 468.337 466.277 467.274 464.942 466.526C463.622 465.763 462.119 465.382 460.432 465.382C459.171 465.382 458.005 465.602 456.934 466.042C455.864 466.467 454.932 467.083 454.14 467.89C453.363 468.697 452.754 469.665 452.314 470.794C451.874 471.923 451.654 473.192 451.654 474.6C451.654 476.463 452.036 478.083 452.798 479.462C453.561 480.841 454.602 481.911 455.922 482.674C457.257 483.422 458.76 483.796 460.432 483.796ZM479.141 490V459.2H491.637C493.925 459.2 495.919 459.574 497.621 460.322C499.337 461.055 500.657 462.126 501.581 463.534C502.519 464.942 502.989 466.629 502.989 468.594C502.989 470.105 502.703 471.439 502.131 472.598C501.559 473.742 500.774 474.695 499.777 475.458C498.779 476.221 497.65 476.793 496.389 477.174L504.683 490H496.015L489.151 478.67H486.445V490H479.141ZM486.445 472.818H490.757C492.282 472.818 493.47 472.517 494.321 471.916C495.186 471.315 495.619 470.361 495.619 469.056C495.619 467.736 495.208 466.768 494.387 466.152C493.58 465.521 492.421 465.206 490.911 465.206H486.445V472.818Z" fill="black"/>
</svg>
